Coordinates
version=1
nRows=10
nColumns=40
inDegrees=yes

Units are S.I. units (second, meters, Newtons, ...)
Angles are in degrees.

endheader
time	pelvis_tilt	pelvis_list	pelvis_rotation	pelvis_tx	pelvis_ty	pelvis_tz	hip_flexion_r	hip_adduction_r	hip_rotation_r	knee_angle_r	knee_angle_r_beta	ankle_angle_r	subtalar_angle_r	mtp_angle_r	hip_flexion_l	hip_adduction_l	hip_rotation_l	knee_angle_l	knee_angle_l_beta	ankle_angle_l	subtalar_angle_l	mtp_angle_l	lumbar_extension	lumbar_bending	lumbar_rotation	arm_flex_r	arm_add_r	arm_rot_r	elbow_flex_r	pro_sup_r	wrist_flex_r	wrist_dev_r	arm_flex_l	arm_add_l	arm_rot_l	elbow_flex_l	pro_sup_l	wrist_flex_l	wrist_dev_l
     40.50750000	     -5.81145047	     -5.38007536	      4.36936523	      0.87973087	      0.91982817	      0.47054491	      0.50952015	      0.74421898	    -16.25252250	     21.81052345	     21.81052345	     17.28780322	      1.12525188	     -4.90237496	     28.96304027	     -4.79130243	      1.72867878	     26.27055590	     26.27055590	      6.04180142	    -14.80338372	      5.87309519	     -8.44897169	      5.30793351	      4.01566332	     25.80997712	    -14.59989889	     -8.63518801	     79.22711449	     45.37822357	      0.00000000	      0.00000000	     -5.23240082	     -7.29756786	      0.18302733	     30.79653838	     45.23016126	      0.00000000	      0.00000000
     40.52085714	     -5.85962194	     -5.35741405	      4.16233236	      0.88032913	      0.92078893	      0.46769858	      1.00516902	      0.19773907	    -16.08024830	     23.38662234	     23.38662234	     15.54551402	      0.31887614	     -8.81592776	     28.46186885	     -4.64135267	      1.70193304	     26.38784754	     26.38784754	      7.27264996	    -14.76555279	      7.52030548	     -8.33527317	      5.29797925	      3.30488214	     25.72382433	    -13.64401943	     -8.74158045	     74.48698132	     45.52966329	      0.00000000	      0.00000000	     -4.77608238	     -7.32136406	     -1.16912815	     31.49754158	     45.46454088	      0.00000000	      0.00000000
     40.53421429	     -5.81312505	     -5.24064990	      3.92952651	      0.88088614	      0.92167651	      0.46483853	      1.79769553	     -0.55311395	    -15.77507571	     25.83295239	     25.83295239	     14.88439529	     -0.33828986	     -9.61513203	     27.79992083	     -4.48239961	      1.36882765	     26.38129472	     26.38129472	      7.82628774	    -14.65394043	      7.30895101	     -8.48159919	      5.22726673	      3.48534641	     24.10791409	    -13.84173368	     -8.50212430	     73.06465834	     45.56031635	      0.00000000	      0.00000000	     -3.72003283	     -7.46482817	     -1.41169640	     32.19471598	     45.51820395	      0.00000000	      0.00000000
     40.54757143	     -5.86981285	     -5.17003460	      3.64759507	      0.88127086	      0.92232865	      0.46211279	      2.95558243	     -1.27997344	    -15.31043685	     28.64308124	     28.64308124	     13.89574435	     -1.37264986	    -10.75493634	     27.22070739	     -4.38296998	      0.98197793	     26.28823873	     26.28823873	      8.32514911	    -14.55005525	      7.10477499	     -8.44332913	      5.21268647	      3.73142051	     22.57261541	    -14.07796138	     -8.34186640	     71.04889193	     45.61339764	      0.00000000	      0.00000000	     -2.67258848	     -7.61356212	     -1.65514232	     32.98287368	     45.57117322	      0.00000000	      0.00000000
     40.56092857	     -5.88776071	     -5.17343030	      3.40703228	      0.88152490	      0.92295019	      0.45948756	      4.02942165	     -1.75660093	    -14.50341289	     31.00767649	     31.00767649	     10.71372775	     -4.14667815	    -16.89414903	     26.65546768	     -4.35632718	      0.68488870	     26.24876310	     26.24876310	      8.77364945	    -14.35573666	      6.77425575	     -8.39580827	      5.24704017	      2.91585046	     22.52468001	    -13.53114434	     -7.38679482	     65.84393826	     45.72040675	      0.00000000	      0.00000000	     -2.49252929	     -7.80253350	     -2.90456164	     34.77799456	     45.77003569	      0.00000000	      0.00000000
     40.57428571	     -5.83613289	     -5.04951022	      3.13044542	      0.88162046	      0.92350245	      0.45683339	      5.52716464	     -2.55270862	    -13.85353169	     34.50253036	     34.50253036	      9.41370154	     -5.52603529	    -17.37832593	     25.97445700	     -4.21616858	      0.26009421	     26.15221405	     26.15221405	      9.26136795	    -14.14597503	      6.50945355	     -8.56189256	      5.18010054	      3.00467407	     20.94640776	    -13.64824708	     -7.22967008	     64.27550648	     45.75787460	      0.00000000	      0.00000000	     -1.30659681	     -8.04439793	     -3.02839126	     35.42606734	     45.80597506	      0.00000000	      0.00000000
     40.58764286	     -5.84213651	     -5.08173626	      2.84179429	      0.88151856	      0.92394434	      0.45451757	      7.19968513	     -2.90550316	    -12.66658536	     37.86081739	     37.86081739	      7.04025148	     -8.53778910	    -19.10771808	     25.43298640	     -4.29195572	     -0.23889545	     26.12712597	     26.12712597	      9.69569840	    -13.75062563	      5.96889907	     -8.55597331	      5.26394381	      2.78932715	     20.30882956	    -13.41488620	     -6.99820323	     59.84161576	     45.87744395	      0.00000000	      0.00000000	     -0.40448716	     -8.40341332	     -2.92626040	     36.36710680	     45.82049023	      0.00000000	      0.00000000
     40.60100000	     -5.85565870	     -5.00581161	      2.55898217	      0.88131318	      0.92419237	      0.45211405	      9.09087289	     -3.50748559	    -11.84001212	     41.61096696	     41.61096696	      5.16847098	    -10.44974189	    -19.07766459	     24.88280461	     -4.20340198	     -0.66429790	     26.08139598	     26.08139598	     10.17475945	    -13.59073727	      5.65421159	     -8.59603286	      5.24322885	      2.95404905	     18.68671552	    -13.63030212	     -6.74776503	     57.67965255	     45.92716400	      0.00000000	      0.00000000	      0.84060736	     -8.65056672	     -2.95244976	     37.25940359	     45.84798325	      0.00000000	      0.00000000
     40.61435714	     -5.82107268	     -4.92588013	      2.27914106	      0.88086384	      0.92453340	      0.44993440	     11.05202637	     -3.95531558	    -10.78937668	     45.35474182	     45.35474182	      3.17195960	    -12.50602993	    -18.46649062	     24.31347555	     -4.14165775	     -1.09775428	     26.05057528	     26.05057528	     10.57770450	    -13.25717287	      5.30404578	     -8.75194398	      5.20527758	      2.98228945	     17.25848750	    -13.72133117	     -6.50430719	     55.10567717	     45.99196603	      0.00000000	      0.00000000	      2.09581360	     -8.95700637	     -2.82681134	     38.06345887	     45.85770068	      0.00000000	      0.00000000
     40.62771429	     -5.71829112	     -4.90211257	      1.96655661	      0.88040256	      0.92492009	      0.44799854	     13.02228846	     -4.22658272	     -9.73345161	     49.06010073	     49.06010073	      1.43510465	    -14.28696514	    -16.49089112	     23.69238420	     -4.18537504	     -1.62262375	     26.06299896	     26.06299896	     11.02675245	    -12.85101975	      4.78484705	     -8.92024749	      5.19906165	      2.89936042	     16.46353047	    -13.61751794	     -6.17895121	     51.08870955	     46.09730103	      0.00000000	      0.00000000	      3.20342373	     -9.44275687	     -2.26622465	     38.85167305	     45.82273198	      0.00000000	      0.00000000
